<svg xmlns="http://www.w3.org/2000/svg" width="643.6" height="569.6" viewBox="0 0 643.6 569.6"><path style="fill:#ffffff;fill-rule:evenodd;" d="M170.8 82.8c0-1 .3-1.8 1-2.5s1.5-1 2.5-1c1.1 0 1.9.3 2.6 1 .7.7 1 1.5 1 2.5v42.8c0 1-.3 1.8-1 2.5s-1.6 1-2.6 1-1.8-.3-2.5-1-1-1.5-1-2.5V82.8zM153 152.2c5.9-5.9 12.9-8.8 21.2-8.8 8.2 0 15.3 2.9 21.2 8.8 5.9 5.9 8.8 12.9 8.8 21.2 0 8.2-2.9 15.3-8.8 21.2-5.9 5.9-13 8.8-21.2 8.8-8.3 0-15.4-2.9-21.2-8.8-5.9-5.9-8.8-13-8.8-21.2.1-8.3 3-15.3 8.8-21.2zm21.3-1.6c-6.3 0-11.6 2.2-16.1 6.7-4.5 4.5-6.7 9.8-6.7 16.1 0 6.3 2.2 11.6 6.7 16.1 4.5 4.5 9.8 6.7 16.1 6.7 6.3 0 11.6-2.2 16.1-6.7 4.5-4.5 6.7-9.8 6.7-16.1 0-6.3-2.2-11.6-6.7-16.1-4.5-4.4-9.9-6.7-16.1-6.7zm-3.5 70.6c0-1 .3-1.8 1-2.5s1.5-1 2.5-1c1.1 0 1.9.3 2.6 1 .7.7 1 1.5 1 2.5V264c0 1-.3 1.8-1 2.5s-1.6 1-2.6 1-1.8-.3-2.5-1-1-1.5-1-2.5v-42.8zm0 62.9c0-1 .3-1.8 1-2.5s1.5-1 2.5-1c1.1 0 1.9.3 2.6 1 .7.7 1 1.5 1 2.5V327c0 1-.3 1.8-1 2.5s-1.6 1-2.6 1-1.8-.3-2.5-1-1-1.5-1-2.5v-42.9zm0 63c0-1 .3-1.8 1-2.5s1.5-1 2.5-1c1.1 0 1.9.3 2.6 1 .7.7 1 1.5 1 2.5V390c0 1-.3 1.8-1 2.5s-1.6 1-2.6 1-1.8-.3-2.5-1-1-1.5-1-2.5v-42.9zM228 70.3c5.9-5.9 12.9-8.8 21.2-8.8 8.2 0 15.3 2.9 21.2 8.8 5.9 5.9 8.8 12.9 8.8 21.2 0 8.2-2.9 15.3-8.8 21.2-5.9 5.9-13 8.8-21.2 8.8-8.3 0-15.4-2.9-21.2-8.8-5.9-5.9-8.8-13-8.8-21.2.1-8.3 3-15.4 8.8-21.2zm21.3-1.6c-6.3 0-11.6 2.2-16.1 6.7-4.5 4.5-6.7 9.8-6.7 16.1 0 6.3 2.2 11.6 6.7 16.1 4.5 4.5 9.8 6.7 16.1 6.7 6.3 0 11.6-2.2 16.1-6.7 4.5-4.5 6.7-9.8 6.7-16.1 0-6.3-2.2-11.6-6.7-16.1-4.5-4.5-9.9-6.7-16.1-6.7zm-21.3 74c5.9-5.9 12.9-8.8 21.2-8.8 8.2 0 15.3 2.9 21.2 8.8 5.9 5.9 8.8 12.9 8.8 21.2 0 8.2-2.9 15.3-8.8 21.2-5.9 5.9-13 8.8-21.2 8.8-8.3 0-15.4-2.9-21.2-8.8-5.9-5.9-8.8-13-8.8-21.2.1-8.2 3-15.3 8.8-21.2zm21.3-1.6c-6.3 0-11.6 2.2-16.1 6.7-4.5 4.5-6.7 9.8-6.7 16.1 0 6.3 2.2 11.6 6.7 16.1 4.5 4.5 9.8 6.7 16.1 6.7 6.3 0 11.6-2.2 16.1-6.7 4.5-4.5 6.7-9.8 6.7-16.1 0-6.3-2.2-11.6-6.7-16.1-4.5-4.4-9.9-6.7-16.1-6.7zM228 215.2c5.9-5.9 12.9-8.8 21.2-8.8 8.2 0 15.3 2.9 21.2 8.8 5.9 5.9 8.8 12.9 8.8 21.2 0 8.2-2.9 15.3-8.8 21.2-5.9 5.9-13 8.8-21.2 8.8-8.3 0-15.4-2.9-21.2-8.8-5.9-5.9-8.8-13-8.8-21.2.1-8.3 3-15.4 8.8-21.2zm21.3-1.6c-6.3 0-11.6 2.2-16.1 6.7-4.5 4.5-6.7 9.8-6.7 16.1 0 6.3 2.2 11.6 6.7 16.1 4.5 4.5 9.8 6.7 16.1 6.7 6.3 0 11.6-2.2 16.1-6.7 4.5-4.5 6.7-9.8 6.7-16.1 0-6.3-2.2-11.6-6.7-16.1-4.5-4.5-9.9-6.7-16.1-6.7zm-21.3 74c5.9-5.9 12.9-8.8 21.2-8.8 8.2 0 15.3 2.9 21.2 8.8 5.9 5.9 8.8 12.9 8.8 21.2 0 8.2-2.9 15.3-8.8 21.2-5.9 5.9-13 8.8-21.2 8.8-8.3 0-15.4-2.9-21.2-8.8-5.9-5.9-8.8-13-8.8-21.2.1-8.3 3-15.3 8.8-21.2zm21.3-1.6c-6.3 0-11.6 2.2-16.1 6.7-4.5 4.5-6.7 9.8-6.7 16.1 0 6.3 2.2 11.6 6.7 16.1 4.5 4.5 9.8 6.7 16.1 6.7 6.3 0 11.6-2.2 16.1-6.7 4.5-4.5 6.7-9.8 6.7-16.1 0-6.3-2.2-11.6-6.7-16.1-4.5-4.4-9.9-6.7-16.1-6.7zM228 360.1c5.9-5.9 12.9-8.8 21.2-8.8 8.2 0 15.3 2.9 21.2 8.8 5.9 5.9 8.8 12.9 8.8 21.2 0 8.2-2.9 15.3-8.8 21.2-5.9 5.9-13 8.8-21.2 8.8-8.3 0-15.4-2.9-21.2-8.8-5.9-5.9-8.8-13-8.8-21.2.1-8.3 3-15.4 8.8-21.2zm21.3-1.6c-6.3 0-11.6 2.2-16.1 6.7-4.5 4.5-6.7 9.8-6.7 16.1 0 6.3 2.2 11.6 6.7 16.1 4.5 4.5 9.8 6.7 16.1 6.7 6.3 0 11.6-2.2 16.1-6.7 4.5-4.5 6.7-9.8 6.7-16.1 0-6.3-2.2-11.6-6.7-16.1-4.5-4.5-9.9-6.7-16.1-6.7zm71.5-355c0-1 .3-1.8 1-2.5s1.5-1 2.5-1c1.1 0 1.9.3 2.6 1 .7.7 1 1.5 1 2.5v42.8c0 1-.3 1.8-1 2.5s-1.6 1-2.6 1-1.8-.3-2.5-1-1-1.5-1-2.5V3.5zM303 72.9c5.9-5.9 12.9-8.8 21.2-8.8 8.2 0 15.3 2.9 21.2 8.8 5.9 5.9 8.8 12.9 8.8 21.2 0 8.2-2.9 15.3-8.8 21.2-5.9 5.9-13 8.8-21.2 8.8-8.3 0-15.4-2.9-21.2-8.8-5.9-5.9-8.8-13-8.8-21.2.1-8.2 3-15.3 8.8-21.2zm21.3-1.6c-6.3 0-11.6 2.2-16.1 6.7-4.5 4.5-6.7 9.8-6.7 16.1 0 6.3 2.2 11.6 6.7 16.1 4.5 4.5 9.8 6.7 16.1 6.7 6.3 0 11.6-2.2 16.1-6.7 4.5-4.5 6.7-9.8 6.7-16.1 0-6.3-2.2-11.6-6.7-16.1-4.5-4.4-9.9-6.7-16.1-6.7zm-3.5 70.6c0-1 .3-1.8 1-2.5s1.5-1 2.5-1c1.1 0 1.9.3 2.6 1 .7.7 1 1.5 1 2.5v42.8c0 1-.3 1.8-1 2.5s-1.6 1-2.6 1-1.8-.3-2.5-1-1-1.5-1-2.5v-42.8zm0 62.9c0-1 .3-1.8 1-2.5s1.5-1 2.5-1c1.1 0 1.9.3 2.6 1 .7.7 1 1.5 1 2.5v42.8c0 1-.3 1.8-1 2.5s-1.6 1-2.6 1-1.8-.3-2.5-1-1-1.5-1-2.5v-42.8zM303 274.2c5.9-5.9 12.9-8.8 21.2-8.8 8.2 0 15.3 2.9 21.2 8.8 5.9 5.9 8.8 12.9 8.8 21.2 0 8.2-2.9 15.3-8.8 21.2-5.9 5.9-13 8.8-21.2 8.8-8.3 0-15.4-2.9-21.2-8.8-5.9-5.9-8.8-13-8.8-21.2.1-8.2 3-15.3 8.8-21.2zm21.3-1.6c-6.3 0-11.6 2.2-16.1 6.7-4.5 4.5-6.7 9.8-6.7 16.1 0 6.3 2.2 11.6 6.7 16.1 4.5 4.5 9.8 6.7 16.1 6.7 6.3 0 11.6-2.2 16.1-6.7 4.5-4.5 6.7-9.8 6.7-16.1 0-6.3-2.2-11.6-6.7-16.1-4.5-4.4-9.9-6.7-16.1-6.7zM303 346.7c5.9-5.9 12.9-8.8 21.2-8.8 8.2 0 15.3 2.9 21.2 8.8 5.9 5.9 8.8 12.9 8.8 21.2 0 8.2-2.9 15.3-8.8 21.2-5.9 5.9-13 8.8-21.2 8.8-8.3 0-15.4-2.9-21.2-8.8-5.9-5.9-8.8-13-8.8-21.2.1-8.3 3-15.4 8.8-21.2zm21.3-1.6c-6.3 0-11.6 2.2-16.1 6.7-4.5 4.5-6.7 9.8-6.7 16.1 0 6.3 2.2 11.6 6.7 16.1 4.5 4.5 9.8 6.7 16.1 6.7 6.3 0 11.6-2.2 16.1-6.7 4.5-4.5 6.7-9.8 6.7-16.1 0-6.3-2.2-11.6-6.7-16.1-4.5-4.5-9.9-6.7-16.1-6.7zm-21.3 74c5.9-5.9 12.9-8.8 21.2-8.8 8.2 0 15.3 2.9 21.2 8.8 5.9 5.9 8.8 12.9 8.8 21.2 0 8.2-2.9 15.3-8.8 21.2-5.9 5.9-13 8.8-21.2 8.8-8.3 0-15.4-2.9-21.2-8.8-5.9-5.9-8.8-13-8.8-21.2.1-8.3 3-15.3 8.8-21.2zm21.3-1.6c-6.3 0-11.6 2.2-16.1 6.7-4.5 4.5-6.7 9.8-6.7 16.1 0 6.3 2.2 11.6 6.7 16.1 4.5 4.5 9.8 6.7 16.1 6.7 6.3 0 11.6-2.2 16.1-6.7 4.5-4.5 6.7-9.8 6.7-16.1 0-6.3-2.2-11.6-6.7-16.1-4.5-4.4-9.9-6.7-16.1-6.7zm71.5-346.2c0-1 .3-1.8 1-2.5s1.5-1 2.5-1c1.1 0 1.9.3 2.6 1 .7.7 1 1.5 1 2.5v42.8c0 1-.3 1.8-1 2.5s-1.6 1-2.6 1-1.8-.3-2.5-1-1-1.5-1-2.5V71.3zM378 140.6c5.9-5.9 12.9-8.8 21.2-8.8 8.2 0 15.3 2.9 21.2 8.8 5.9 5.9 8.8 12.9 8.8 21.2 0 8.2-2.9 15.3-8.8 21.2-5.9 5.9-13 8.8-21.2 8.8-8.3 0-15.4-2.9-21.2-8.8-5.9-5.9-8.8-13-8.8-21.2.1-8.2 3-15.3 8.8-21.2zm21.3-1.6c-6.3 0-11.6 2.2-16.1 6.7-4.5 4.5-6.7 9.8-6.7 16.1 0 6.3 2.2 11.6 6.7 16.1 4.5 4.5 9.8 6.7 16.1 6.7 6.3 0 11.6-2.2 16.1-6.7 4.5-4.5 6.7-9.8 6.7-16.1 0-6.3-2.2-11.6-6.7-16.1-4.5-4.4-9.9-6.7-16.1-6.7zm-3.5 70.6c0-1 .3-1.8 1-2.5s1.5-1 2.5-1c1.1 0 1.9.3 2.6 1 .7.7 1 1.5 1 2.5v42.8c0 1-.3 1.8-1 2.5s-1.6 1-2.6 1-1.8-.3-2.5-1-1-1.5-1-2.5v-42.8zM378 279c5.9-5.9 12.9-8.8 21.2-8.8 8.2 0 15.3 2.9 21.2 8.8 5.9 5.9 8.8 12.9 8.8 21.2 0 8.2-2.9 15.3-8.8 21.2-5.9 5.9-13 8.8-21.2 8.8-8.3 0-15.4-2.9-21.2-8.8-5.9-5.9-8.8-13-8.8-21.2.1-8.3 3-15.4 8.8-21.2zm21.3-1.6c-6.3 0-11.6 2.2-16.1 6.7-4.5 4.5-6.7 9.8-6.7 16.1 0 6.3 2.2 11.6 6.7 16.1 4.5 4.5 9.8 6.7 16.1 6.7 6.3 0 11.6-2.2 16.1-6.7 4.5-4.5 6.7-9.8 6.7-16.1 0-6.3-2.2-11.6-6.7-16.1-4.5-4.5-9.9-6.7-16.1-6.7zm-21.3 74c5.9-5.9 12.9-8.8 21.2-8.8 8.2 0 15.3 2.9 21.2 8.8 5.9 5.9 8.8 12.9 8.8 21.2 0 8.2-2.9 15.3-8.8 21.2-5.9 5.9-13 8.8-21.2 8.8-8.3 0-15.4-2.9-21.2-8.8-5.9-5.9-8.8-13-8.8-21.2.1-8.3 3-15.3 8.8-21.2zm21.3-1.6c-6.3 0-11.6 2.2-16.1 6.7-4.5 4.5-6.7 9.8-6.7 16.1 0 6.3 2.2 11.6 6.7 16.1 4.5 4.5 9.8 6.7 16.1 6.7 6.3 0 11.6-2.2 16.1-6.7 4.5-4.5 6.7-9.8 6.7-16.1 0-6.3-2.2-11.6-6.7-16.1-4.5-4.5-9.9-6.7-16.1-6.7zM453 121.4c5.9-5.9 12.9-8.8 21.2-8.8 8.2 0 15.3 2.9 21.2 8.8 5.9 5.9 8.8 12.9 8.8 21.2 0 8.2-2.9 15.3-8.8 21.2-5.9 5.9-13 8.8-21.2 8.8-8.3 0-15.4-2.9-21.2-8.8-5.9-5.9-8.8-13-8.8-21.2.1-8.3 3-15.4 8.8-21.2zm21.3-1.6c-6.3 0-11.6 2.2-16.1 6.7-4.5 4.5-6.7 9.8-6.7 16.1 0 6.3 2.2 11.6 6.7 16.1 4.5 4.5 9.8 6.7 16.1 6.7 6.3 0 11.6-2.2 16.1-6.7 4.5-4.5 6.7-9.8 6.7-16.1 0-6.3-2.2-11.6-6.7-16.1-4.5-4.5-9.9-6.7-16.1-6.7zm-3.5 70.5c0-1 .3-1.8 1-2.5s1.5-1 2.5-1c1.1 0 1.9.3 2.6 1 .7.7 1 1.5 1 2.5v42.8c0 1-.3 1.8-1 2.5s-1.6 1-2.6 1-1.8-.3-2.5-1-1-1.5-1-2.5v-42.8zm0 63c0-1 .3-1.8 1-2.5s1.5-1 2.5-1c1.1 0 1.9.3 2.6 1 .7.7 1 1.5 1 2.5v42.8c0 1-.3 1.8-1 2.5s-1.6 1-2.6 1-1.8-.3-2.5-1-1-1.5-1-2.5v-42.8zm0 63c0-1 .3-1.8 1-2.5s1.5-1 2.5-1c1.1 0 1.9.3 2.6 1 .7.7 1 1.5 1 2.5v42.8c0 1-.3 1.8-1 2.5s-1.6 1-2.6 1-1.8-.3-2.5-1-1-1.5-1-2.5v-42.8zM46.6 569.5c-1 0-1.9-.4-2.5-1.2l-36.5-45v42.3c0 2.4-1.9 3.7-3.8 3.7S0 568 0 565.6v-53c0-2.2 2.1-3.8 4-3.8 1 0 1.9.4 2.5 1.2L43 555v-42.3c0-2.4 1.9-3.7 3.8-3.7s3.8 1.3 3.8 3.7v53c0 1-.5 2-1.3 2.7-.7.7-1.7 1.1-2.7 1.1zm46.9-.1c5.3 0 10.4-1.4 14.8-4.2 10.3-6.4 15.9-18.9 13.9-31.2-2.3-14.2-14.4-24.8-28.9-25.2-12.5.3-22.9 8.1-27.2 20.3-4.4 12.3-1.1 25 8.4 33.2 5.3 4.6 12 7.1 19 7.1zm21.5-30.3c0 6.1-2.5 12.1-6.8 16.4-4 4.1-9.3 6.3-14.9 6.3-12-.1-21.7-10.2-21.7-22.7 0-12.4 9.5-22.4 21.7-22.7 12.1.4 21.7 10.3 21.7 22.7zm24.9 30.2c1 0 1.9-.3 2.6-.9.8-.7 1.2-1.6 1.2-2.8v-53c0-2.4-1.9-3.7-3.8-3.7s-3.8 1.3-3.8 3.7v53c0 2.4 1.9 3.7 3.8 3.7zm47-.4c6.9-1.3 12.9-5.7 15.4-11.2 1.9-4.2 1.6-8.6-.9-12.8-2.8-4.9-8.3-8.6-14.5-9.9-1.9-.4-3.8-.5-5.9-.7-5.1-.4-10.3-.7-13.3-5.1-1.3-1.8-1.5-3.6-.8-5.4 1.6-3.8 7.2-6.4 10.7-7 1.1-.2 2.2-.3 3.4-.3 6.9 0 14.6 3 15 9.5.1 2.4 2.1 3.6 4 3.6 1.1 0 2.1-.4 2.7-1.1.6-.7.9-1.6.9-2.6-.7-11.7-12.2-17-22.6-17-1.8 0-3.7.2-5.4.5-6.8 1.3-13.3 6.1-15.6 11.6-1.7 4-1.3 8.2 1.1 12.1 3.7 5.8 10.7 7.7 14.5 8.4 1.5.3 3.1.4 4.6.6 5.9.6 11.4 1.2 14.6 6.7 1.2 2.1 1.4 4.2.5 6.2-1.7 3.6-6.6 6-10.4 6.7-1.1.2-2.2.3-3.4.3-6.9 0-14.6-3-15-9.5-.1-2.4-2.1-3.6-4-3.6-1.1 0-2.1.4-2.7 1.1-.6.7-.9 1.6-.9 2.6.7 11.7 12.2 17 22.6 17 1.9-.2 3.7-.4 5.4-.7zm53.4.7c1 0 2-.3 2.7-1 .8-.7 1.3-1.7 1.3-2.9v-24.5c1-1.7 14.6-18.6 20.4-25.9 1-1.2 1.2-2.8.5-4.3-.7-1.4-2-2.4-3.4-2.4-.7 0-1.7.2-2.5 1.3l-19.3 24c-2.2-2.8-13.5-16.6-19.3-23.9-.9-1.1-1.9-1.3-2.5-1.3-1.4 0-2.7.9-3.4 2.4-.7 1.4-.5 3 .5 4.3 6.5 8.1 19.7 24.4 21.1 26v24.4c-.1 2.4 1.9 3.8 3.9 3.8zm88.6-.7c6.9-1.3 12.9-5.7 15.4-11.2 1.9-4.2 1.6-8.6-.9-12.8-2.8-4.9-8.3-8.6-14.5-9.9-1.9-.4-3.8-.5-5.9-.7-5.1-.4-10.3-.7-13.3-5.1-1.3-1.8-1.5-3.6-.8-5.4 1.6-3.8 7.2-6.4 10.7-7 1.1-.2 2.2-.3 3.4-.3 6.9 0 14.6 3 15 9.5.1 2.4 2.1 3.6 4 3.6 1.1 0 2.1-.4 2.7-1.1.6-.7.9-1.6.9-2.6-.7-11.7-12.2-17-22.6-17-1.8 0-3.7.2-5.4.5-6.8 1.3-13.3 6.1-15.6 11.6-1.7 4-1.3 8.2 1.1 12.1 3.7 5.8 10.7 7.7 14.5 8.4 1.5.3 3.1.4 4.6.6 5.9.6 11.4 1.2 14.6 6.7 1.2 2.1 1.4 4.2.5 6.2-1.7 3.6-6.6 6-10.4 6.7-1.1.2-2.2.3-3.4.3-6.9 0-14.6-3-15-9.5-.1-2.4-2.1-3.6-4-3.6-1.1 0-2.1.4-2.7 1.1-.6.7-.9 1.6-.9 2.6.7 11.7 12.2 17 22.6 17 1.9-.2 3.7-.4 5.4-.7zm53-3.3v-49.2h17.2c2.4 0 3.7-1.9 3.7-3.8s-1.3-3.8-3.7-3.8h-42c-1.1 0-2.1.4-2.8 1.2-.6.7-.9 1.6-.9 2.6 0 1.9 1.3 3.8 3.7 3.8h17.2v49.2c0 2.4 1.9 3.7 3.8 3.7s3.8-1.3 3.8-3.7zm74.8 1.9c.7-1.2.8-2.5.3-3.8l-10.1-22.2c6.6-2.6 10.6-8.4 10.6-15.6 0-10-7.6-17-18.4-17h-21.5c-2.1 0-3.8 1.7-3.8 3.8v53c0 2.4 1.9 3.7 3.8 3.7s3.8-1.3 3.8-3.7V543h17.8l11.1 24.6c.6 1.3 1.6 2 2.9 2 1.4-.1 2.7-.9 3.5-2.1zm-35.3-32.2v-18.9h13.9c7.3 0 14.5.7 14.5 9.5 0 4.4-4.5 9.5-7.4 9.5l-21-.1zm89.3 34.1c2.4 0 3.7-1.9 3.7-3.8s-1.3-3.8-3.7-3.8h-31.2v-18.9h25.2c2.4 0 3.7-1.9 3.7-3.8s-1.3-3.8-3.7-3.8h-25.2v-18.9h31.2c2.4 0 3.7-1.9 3.7-3.8s-1.3-3.8-3.7-3.8h-35c-2.1 0-3.8 1.7-3.8 3.8v53c0 2.1 1.7 3.8 3.8 3.8h35zm21.3-1.9l5.7-12.6h30l5.7 12.6c.6 1.3 1.6 2 2.9 2 1.3 0 2.7-.8 3.4-2 .7-1.2.8-2.5.3-3.8l-24-53c-.5-1.2-1.8-1.9-3.3-1.9-1.5 0-2.8.7-3.3 1.9l-24 53c-.6 1.3-.5 2.6.3 3.8.8 1.2 2.1 2 3.4 2 1.3 0 2.3-.7 2.9-2zm9.2-20.2l11.5-25.5 11.5 25.5h-23zm98.6 22c1 0 1.9-.3 2.6-.9.8-.7 1.2-1.6 1.2-2.8v-53c0-2.2-2.1-3.8-4-3.8-1 0-1.9.4-2.5 1.2l-19.3 23.4-19.3-23.4c-.6-.8-1.5-1.2-2.5-1.2-1.9 0-4 1.6-4 3.8v53c0 2.4 1.9 3.7 3.8 3.7s3.8-1.3 3.8-3.7v-42.4l15.5 18.8c.6.7 1.6 1.1 2.7 1.1s2.1-.4 2.7-1.1l15.5-18.8v42.4c0 2.4 1.9 3.7 3.8 3.7z"/></svg>