<svg xmlns="http://www.w3.org/2000/svg" width="1565.3" height="240" viewBox="0 0 1565.3 240"><path style="fill:#ffffff;fill-rule:evenodd;" d="M7.5 9.2c5-5 11-7.5 18-7.5s13 2.5 18.2 7.5c5 5 7.6 11 7.6 18s-2.5 13-7.6 18.2c-5 5-11 7.5-18 7.5-7.2 0-13.2-2.6-18.2-7.6S0 34.4 0 27.4 2.5 14 7.5 9zm18-1.3c-5.2 0-9.8 1.8-13.7 5.6S6 22 6 27.4c0 5.3 2 10 5.8 13.8S20.2 47 25.6 47s10-2 13.8-5.8S45 32.8 45 27.4s-1.8-10-5.6-13.8S31 8 25.6 8zm-18 66c5-5 11-7.5 18-7.5s13 2.5 18.2 7.5c5 5 7.6 11 7.6 18s-2.5 13-7.6 18.2c-5 5-11 7.5-18 7.5-7.2 0-13.2-2.5-18.2-7.5S0 99.2 0 92.2 2.5 79 7.5 74zm18-1.3c-5.2 0-9.8 2-13.7 5.7C8 82.2 6 86.8 6 92.2c0 5.3 2 10 5.8 13.8s8.4 5.7 13.8 5.7 10-2 13.8-5.7S45 97.6 45 92.2s-1.8-10-5.6-13.8c-3.8-3.8-8.4-5.7-13.8-5.7zm-18 66c5-5 11-7.4 18-7.4s13 2.5 18.2 7.5c5 5 7.6 11 7.6 18s-2.5 13-7.6 18.2c-5 5-11 7.5-18 7.5-7.2 0-13.2-2.5-18.2-7.5S0 164 0 157c0-7.2 2.5-13.2 7.5-18.2zm18-1.3c-5.2 0-9.8 2-13.7 5.7C8 147 6 151.6 6 157c0 5.2 2 9.8 5.8 13.7 3.8 3.8 8.4 5.7 13.8 5.7s10-2 13.8-5.7c3.8-3.8 5.7-8.4 5.7-13.8 0-5.5-1.8-10-5.6-14-3.8-3.7-8.4-5.6-13.8-5.6zM23 200.8c0-.8.2-1.4.8-2 .7-.7 1.7-1 2.7-1 .8 0 1.5.5 2 1.2.4.5.5 1.2.5 1.8v35.5c0 .6-.2 1.3-.5 1.8-.7 1-1.6 1.4-2.8 1.3-.5 0-1-.2-1.5-.6-.8-.6-1.2-1.4-1.2-2.4v-35.5zM77 7.5C82 2.5 88 0 95 0s13 2.5 18.2 7.5c5 5 7.6 11 7.6 18s-2.5 13-7.6 18.2c-5 5-11 7.5-18 7.5-7.2 0-13.2-2.4-18.2-7.5-5-5-7.5-11-7.5-18 0-7.2 2.5-13.2 7.5-18.2zM95 6C90 6 85.3 8 81.4 12s-5.7 8.4-5.7 13.8c0 5.3 2 10 5.7 13.8S89.7 45 95 45s10-1.8 14-5.6c3.7-3.8 5.6-8.4 5.6-13.8s-2-10-5.7-13.8C105 8 100.4 6 95 6zm-3 63.6c0-.8.2-1.4.8-2 .7-.7 1.7-1 2.7-1 .8 0 1.5.5 2 1.2.4.5.5 1.2.5 1.8V105c0 .7-.2 1.4-.5 2-.7.8-1.6 1.2-2.8 1-.5 0-1 0-1.5-.5-.8-.6-1.2-1.4-1.2-2.4V69.7zM77 131c5-5 11-7.4 18-7.4s13 2.5 18.2 7.5c5 5 7.6 11 7.6 18.2 0 7-2.5 13-7.6 18-5 5-11 7.6-18 7.6-7.2 0-13.2-2.5-18.2-7.5s-7.5-11-7.5-18S72 136 77 131zm18-1.2c-5.2 0-9.8 2-13.7 5.7s-5.7 8.4-5.7 13.8c0 5.3 2 10 5.7 13.8 3.8 4 8.4 5.8 13.8 5.8s10-2 14-5.7c3.7-3.7 5.6-8.3 5.6-13.7 0-5.4-2-10-5.7-13.8-4-3.8-8.5-5.7-14-5.7zm-18 66c5-5 11-7.4 18-7.4s13 2.5 18.2 7.5c5 5 7.6 11 7.6 18s-2.5 13-7.6 18c-5 5-11 7.6-18 7.6C88 239.6 82 237 77 232s-7.5-11-7.5-18 2.5-13 7.5-18zm18-1.3c-5.2 0-9.8 2-13.7 5.7-3.8 3.8-5.7 8.4-5.7 13.8 0 5.3 2 10 5.7 13.8 3.8 3.8 8.4 5.7 13.8 5.7s10-2 14-5.7c3.7-3.8 5.6-8.4 5.6-13.8s-2-10-5.7-13.8c-4-3.8-8.5-5.7-14-5.7zm51.5-177c5-5 11-7.6 18-7.6s13 2.4 18.2 7.4c5 5 7.6 11 7.6 18s-2.5 13-7.6 18.2c-5 5-11 7.5-18 7.5-7.2 0-13.2-2.4-18.2-7.4s-7.5-11-7.5-18c0-7.2 2.5-13.2 7.5-18.2zm18-1.5c-5.2 0-9.8 2-13.7 5.7-3.8 3.8-5.7 8.4-5.7 13.8 0 5.3 2 10 5.8 13.8 3.8 3.8 8.4 5.7 13.8 5.7 5.3 0 10-2 13.8-5.7S184 41 184 35.5s-1.8-10-5.6-13.8S170 16 164.6 16zM162 79.5c0-.8.2-1.4.8-2 .7-.7 1.7-1 2.7-1 .8 0 1.5.5 2 1.2.4.5.5 1.2.5 1.8V115c0 .6-.2 1.3-.5 1.8-.7 1-1.6 1.3-2.8 1.2-.5 0-1-.2-1.5-.6-.8-.6-1.2-1.4-1.2-2.4V79.5zm0 56.6c0-.7.2-1.3.8-2 .7-.6 1.7-1 2.7-1 .8.2 1.5.6 2 1.3.4.5.5 1.2.5 1.8v35.6c0 .6-.2 1.3-.5 1.8-.7 1-1.6 1.3-2.8 1.2-.5 0-1-.2-1.5-.6-.8-.6-1.2-1.4-1.2-2.4V136zm0 56.7c0-.8.2-1.4.8-2 .7-.7 1.7-1 2.7-1 .8 0 1.5.5 2 1.2.4.4.5 1 .5 1.7v35.5c0 .6-.2 1.3-.5 1.8-.7 1-1.6 1.3-2.8 1.2-.5 0-1-.2-1.5-.6-.8-.6-1.2-1.4-1.2-2.4v-35.5zm194-10.4c2 0 4-.8 5.5-2.3 1.7-1.5 2.6-3.5 2.6-5.5V67c0-4.7-3.7-7.2-7.4-7.2S349 62.3 349 67V153l-73.7-91c-1.3-1.5-3-2.3-5-2.3-4 0-8.2 3.3-8.2 7.8v107.4c0 4.8 4 7.3 7.6 7.3 3.7 0 7.5-2.5 7.5-7.3V89l74 91c1 1.4 3 2.3 5 2.3zm95-.3c-14 0-27.8-5-38.4-14.2-19.4-16.6-26-42.4-17-67.2 8.7-24.7 29.8-40.5 55-41 29.3.7 54 22 58.6 51 4 24.7-7.3 50-28 63-9 5.5-19.5 8.4-30.2 8.4zm-.3-107c-24.6.6-44 20.8-44 46 0 25 19.7 45.8 44 46 11.3 0 22-4.6 30-12.8 9-8.8 14-21 14-33.2 0-25.2-19.4-45.4-44-46zm94.8 107c2 0 3.8-.7 5-2 1.7-1.3 2.5-3.2 2.5-5.5V67.2c0-5-3.8-7.5-7.5-7.5s-7.5 2.6-7.5 7.5v107.3c0 5 3.8 7.5 7.5 7.5zm94.8-.8c14-2.7 26.2-11.6 31.2-22.7 3.8-8.4 3.2-17.3-1.8-25.8-5.8-9.8-16.8-17.4-29.4-20-3.8-1-7.8-1.2-12-1.5-10.3-.7-21-1.5-27-10.3-2.5-3.8-3-7.5-1.5-11 3.3-8 14.6-13 21.7-14.3 2-.4 4.5-.6 7-.6 14 0 29.5 6 30.3 19.3.3 4.8 4.3 7.4 8 7.4 2.3 0 4.3-.8 5.6-2.2 1.3-1.4 2-3.2 1.8-5.3-1.4-23.6-24.7-34.4-45.7-34.4-3.7 0-7.4.3-11 1C604 63.5 590.8 73 586 84.3c-3.6 8-2.8 16.5 2.2 24.4 7.4 11.7 21.6 15.7 29.4 17 3 .5 6.2.8 9.3 1 11.8 1.3 23 2.4 29.6 13.7 2.5 4.3 2.8 8.5 1 12.5-3.4 7.2-13.3 12-21 13.4-2 .4-4.5.6-7 .6-14 0-29.5-6-30.3-19.2-.3-4.8-4.3-7.4-8-7.4-2.3 0-4.3.8-5.6 2.2-1.3 1.4-2 3.2-1.8 5.3 1.3 23.5 24.6 34.3 45.6 34.3 3.6 0 7.2-.5 10.7-1zm107.7.6c2 0 4-.7 5.5-2 1.7-1.3 2.5-3.3 2.5-5.7v-48.8c2-3.4 29-37.3 40.8-52 2-2.4 2.3-5.5 1-8.4-1.4-2.8-4-4.7-6.8-4.7-1.3 0-3.3.6-5 2.7l-38.6 48-38.7-48c-1.8-2.2-3.7-2.6-5-2.6-2.8 0-5.5 2-7 4.8-1.3 3-1 6 1 8.5l42.2 52V174c0 5 4 7.8 8 7.8zm180-.2c13.8-2.7 26-11.6 31-22.7 4-8.5 3.3-17.4-1.7-26-5.8-9.7-16.8-17.3-29.4-20-4-.8-8-1-12-1.4-10.4-.7-21-1.5-27-10.3-2.6-3.7-3.2-7.4-1.6-11 3.3-7.8 14.6-13 21.7-14.2 2.2-.3 4.6-.5 7-.5 14 0 29.6 6 30.4 19.2.3 4.8 4.3 7.4 8 7.4 2.3 0 4.3-.7 5.6-2 1.3-1.5 2-3.3 1.8-5.4C960.4 71 937 60.2 916 60.2c-3.6 0-7.3.3-10.8 1-13.8 2.7-27 12.3-31.7 23.5-3.5 8-2.7 16.5 2.3 24.4 7.4 11.8 21.6 15.8 29.4 17 3 .6 6.2 1 9.3 1.2 12 1.2 23.2 2.3 29.7 13.6 2.5 4.3 2.8 8.5 1 12.5-3.4 7.3-13.3 12-21 13.5-2 .4-4.5.6-7 .6-14 0-29.5-6-30.3-19.2-.4-4.8-4.4-7.4-8.2-7.4-2.2 0-4.2.8-5.5 2.2-1.3 1.4-2 3.2-1.8 5.3 1.4 23.6 24.7 34.4 45.7 34.4 3.6 0 7.2-.4 10.7-1zm107-7V75h35c5 0 7.6-4 7.6-7.8s-2.4-7.2-7.5-7.2h-85c-2.5 0-4.2.4-5.6 2-1.2 1.4-2 3.3-2 5.3 0 3.8 2.7 7.7 7.6 7.8h35v99.7c0 5 3.8 7.5 7.6 7.5 3.7-.2 7.6-2.7 7.4-7.6zm142.8 8.2c-2.5 0-4.6-1.5-5.7-4l-22-49.8h-35v46c0 4.8-3.8 7.4-7.5 7.4s-7.5-2.6-7.5-7.5V67.6c0-4.2 3.5-7.7 7.7-7.7h42c21.5 0 36.4 14.2 36.4 34.5 0 14.7-9 26.5-20.8 31.7l20 45c1 2.6 1 5.3-.6 7.6-1.5 2.4-4.2 4-6.8 4zM1115 75v38h39.5c8.7 0 18.2-10.5 18.2-19.5 0-17-18-18.5-28.8-18.5h-29zm179.6 107c4.8 0 7.3-3.8 7.3-7.5s-2.6-7.5-7.4-7.5H1233v-39h49.8c4.8 0 7.3-3.8 7.3-7.5s-2.4-7.5-7.2-7.5H1233V75h61.6c4.8 0 7.3-3.8 7.3-7.5s-2.6-7.5-7.4-7.5h-69c-4 0-7.6 3.5-7.6 7.7v106.6c0 4.2 3.5 7.7 7.7 7.7h69zm38.8.7c-2.7 0-5.4-1.6-7-4-1.4-2.4-1.6-5-.4-7.7l48.6-107.3c1-2.4 3.6-4 6.7-4 3 0 5.6 1.6 6.7 4l48.6 107.3c1.2 2.6 1 5.3-.5 7.7-1.5 2.4-4.2 4-7 4-2.5 0-4.6-1.5-5.8-4l-11.6-25.7H1351l-11.7 25.6c-1.2 2.6-3.4 4-6 4zm71.2-45.7l-23.4-51.6-23.4 51.6h46.8zm153 45c1.8 0 3.7-.6 5-1.8 1.6-1.3 2.4-3.2 2.4-5.5V67.2c0-4.5-4.3-7.8-8.2-7.8-2 0-3.8 1-5 2.4l-39.3 47.6-39.2-47.6c-1.3-1.6-3-2.4-5-2.4-4 0-8.3 3.3-8.3 7.8v107.3c0 5 4 7.8 8 7.8s8-2.7 8-7.8v-86l31.5 38.3c1.2 1.5 3.3 2.3 5.5 2.3 2.3 0 4.3-.8 5.5-2.2l31.5-38.2v86c0 5 3.8 7.4 7.5 7.4z"/></svg>